<?xml version="1.0" encoding="UTF-8"?> <svg xmlns="http://www.w3.org/2000/svg" xmlns:xlink="http://www.w3.org/1999/xlink" version="1.1" id="レイヤー_1" x="0px" y="0px" viewBox="0 0 1040.3 170.1" style="enable-background:new 0 0 1040.3 170.1;" xml:space="preserve"> <style type="text/css"> .st0{fill:#E66700;} </style> <g id="base_00000093877711673436972560000002110796701837608613_"> <g> <g> <g> <path d="M235.3,21.5c0,7.4-0.8,13.2-1.7,16.5c-0.8,3.3-1.7,5.8-2.5,7.4c2.5,1.7,5,3.3,8.3,4.1c3.3,0.8,6.6,1.7,10.7,1.7h25.6 c-0.8,1.7-1.7,3.3-1.7,5.8h-23.9c-9.1,0-16.5-2.5-22.3-6.6c-2.5,3.3-5,5.8-8.3,8.3l-4.1-5c3.3-2.5,5.8-5,8.3-7.4 c-2.5-3.3-5-7.4-6.6-11.6l5-3.3c0.8,2.5,2.5,5.8,5,9.1c0.8-3.3,1.7-7.4,2.5-14H218c3.3-5,5.8-11.6,8.3-18.2h-9.9v-5h14.9 l2.5,2.5c-2.5,5.8-4.1,11.6-6.6,15.7H235.3z M256.8,27.2v4.1h14.9v5h-14.9v4.1h16.5v5h-16.5v5.8h-6.6v-6.6h-14v-5h14v-4.1H237 v-5h13.2v-3.3h-12.4v-5h12.4V19h-15.7v-5h15.7v-3.3h-12.4v-5h12.4V0h6.6v5H270v8.3h5v5h-5v8.3h-13.2V27.2z M256.8,14h7.4v-3.3 h-7.4V14z M256.8,22.3h7.4V19h-7.4V22.3z"></path> <path d="M283.2,11.6h25.6v5h-25.6V11.6z M307.1,38v17.3h-15.7v3.3h-5.8V38H307.1z M286.5,2.5h19v5h-19V2.5z M286.5,20.6h19v5 h-19V20.6z M286.5,29.7h19v5h-19V29.7z M291.4,43.8v7.4h9.9v-7.4H291.4z M329.4,46.2c4.1,2.5,8.3,5,13.2,7.4l-4.1,5 c-5.8-2.5-10.7-5.8-14.9-9.1c-4.1,4.1-9.1,6.6-13.2,9.1l-3.3-5.8c4.1-1.7,9.1-4.1,13.2-7.4c-4.1-4.1-6.6-8.3-8.3-13.2h-3.3v-4.1 H336l2.5,2.5C336,37.2,332.7,42.1,329.4,46.2z M312.9,2.5h19v14.9c0,0.8,0,0.8,0,1.7c0,0,0.8,0,1.7,0c0.8,0,1.7,0,1.7,0 s0-0.8,0.8-1.7c0-2.5,0-4.1,0-5.8l5.8,1.7c0,2.5,0,4.1-0.8,6.6c0,2.5-1.7,4.1-4.1,4.1c-0.8,0-2.5,0-4.1,0c-2.5,0-5,0-5.8-0.8 c-0.8-0.8-1.7-1.7-1.7-3.3V8.3h-7.4l0,0c0,4.1-0.8,7.4-1.7,9.9c-0.8,3.3-2.5,5.8-5,7.4l-4.1-4.1c2.5-1.7,4.1-4.1,5-7.4 c0-1.7,0.8-3.3,0.8-5.8C312.9,8.3,312.9,2.5,312.9,2.5z M324.5,42.1c2.5-3.3,5-5.8,5.8-9.1h-12.4 C319.5,36.3,321.2,39.6,324.5,42.1L324.5,42.1z"></path> <path d="M382.3,26.4v3.3h20.6v4.1h-20.6v3.3h26.4v5h-19.8c5.8,3.3,12.4,6.6,20.6,9.1l-4.1,5.8c-9.1-3.3-16.5-7.4-23.1-13.2v15.7 h-6.6V43.8c-5,6.6-12.4,11.6-22.3,14l-4.1-5c8.3-2.5,14.9-5.8,20.6-9.9h-20.6v-5.8h25.6v-3.3h-20.6v-4.1h20.6v-3.3h-23.1v-4.1 h14c-0.8-2.5-2.5-4.1-3.3-5.8h-12.4v-5.8h9.9l0,0c-1.7-2.5-3.3-5-4.1-7.4l5.8-2.5c1.7,2.5,3.3,5,5,7.4l-5,1.7h8.3V0h5.8v10.7h5 V0h7.4v10.7h8.3l-5-1.7c1.7-2.5,2.5-5,4.1-8.3l6.6,1.7c-1.7,3.3-3.3,6.6-5,8.3h10.7v5h-13.2c-0.8,2.5-1.7,4.1-3.3,5.8h14.9v5 C406.2,26.4,382.3,26.4,382.3,26.4z M374,22.3h10.7c0.8-1.7,2.5-4.1,3.3-5.8h-16.5C372.4,17.3,373.2,19.8,374,22.3z"></path> <path d="M442.5,13.2V9.9h-24.8V5h24.8V0h6.6v4.1h24.8v5h-24.8v3.3h21.5v22.3h-8.3v4.1h13.2v5h-13.2v9.1c0,2.5-0.8,4.1-1.7,5 c-0.8,0.8-2.5,0.8-5,0.8c-3.3,0-5.8,0-9.1,0l-1.7-5.8c3.3,0,5.8,0.8,9.1,0.8c0.8,0,1.7,0,1.7-0.8c0,0,0-0.8,0-1.7v-6.6h-38.8 v-5.8h38.8v-4.1h-33V13.2H442.5z M436.8,57c-2.5-3.3-5.8-5.8-9.9-9.1l5-3.3c3.3,2.5,7.4,5,10.7,8.3L436.8,57z M443.4,17.3h-14 v4.1h14V17.3z M443.4,26.4h-14v4.1h14V26.4z M449.1,17.3v4.1H464v-4.1H449.1z M449.1,26.4v4.1H464v-4.1H449.1z"></path> <path d="M508.6,2.5v23.9h-17.3v32.2h-6.6V2.5H508.6z M491.2,7.4v5H502v-5H491.2z M491.2,16.5v5H502v-5H491.2z M538.3,2.5V52 c0,2.5,0,3.3-0.8,5c-0.8,0.8-2.5,1.7-5.8,1.7c-3.3,0-6.6,0-10.7,0l-0.8-6.6c4.1,0.8,7.4,0.8,9.9,0.8c0.8,0,1.7,0,1.7-0.8 c0,0,0-0.8,0-1.7V27.2h-17.3V2.5H538.3z M531.7,7.4h-11.6v5h11.6V7.4z M531.7,16.5h-11.6v5h11.6V16.5z"></path> <path d="M620.9,25.6v9.1h19.8v5.8h-19.8v10.7h25.6V57h-57v-5.8h24.8V40.5h-19.8v-5.8h19v-9.1h-13.2v-2.5 c-2.5,1.7-5.8,4.1-9.1,5.8l-4.1-5.8c6.6-3.3,11.6-6.6,16.5-9.9c3.3-3.3,6.6-7.4,9.9-12.4h7.4c4.1,5.8,9.9,10.7,15.7,14.9 c3.3,2.5,7.4,4.1,11.6,6.6l-4.1,5c-3.3-1.7-5.8-3.3-9.1-5v4.1h-14V25.6z M631.6,19.8c-5.8-4.1-10.7-8.3-14.9-14 c-3.3,5-7.4,9.9-12.4,14H631.6z"></path> <path d="M710.9,3.3v56.1h-6.6v-3.3H663v3.3h-6.6V3.3H710.9z M663,9.1v41.3h41.3V9.1C704.3,9.1,663,9.1,663,9.1z M686.1,18.2v7.4 h13.2v5h-5.8c1.7,1.7,4.1,3.3,5.8,6.6l-5,3.3c-1.7-2.5-3.3-5-6.6-6.6l4.1-2.5h-6.6v9.9H701v5h-35.5v-5.8h14v-9.9h-11.6v-5h11.6 v-7.4h-13.2v-5H701v5H686.1z"></path> <path d="M737.3,11.6h12.4v3.3h14.9V0h6.6v14h7.4v5.8h-7.4v31.4c0,1.7,0,3.3-0.8,4.1c-0.8,2.5-2.5,3.3-4.1,3.3 c-3.3,0-6.6,0-9.9-0.8l-1.7-6.6c3.3,0.8,6.6,0.8,8.3,0.8c0.8,0,1.7,0,1.7-0.8c0,0,0-0.8,0-1.7V20.6h-15.7v-3.3h-3.3 c-0.8,7.4-2.5,14-4.1,19.8c0.8,1.7,1.7,2.5,1.7,3.3c1.7,2.5,3.3,5,5,6.6l-5,5c-1.7-2.5-3.3-5-5-7.4l-0.8-0.8 c-3.3,6.6-8.3,11.6-13.2,14.9l-4.1-5c5.8-4.1,9.9-9.1,13.2-15.7c-0.8-1.7-2.5-2.5-2.5-3.3c-3.3-4.1-5.8-7.4-8.3-9.9l4.1-4.1 c2.5,2.5,5.8,6.6,9.1,10.7c1.7-4.1,2.5-9.1,2.5-14h-19v-5.8h10.7V0h6.6v11.6H737.3z M755.4,43.8c-1.7-5.8-4.1-11.6-6.6-16.5 l5.8-3.3c3.3,5,5.8,10.7,7.4,16.5L755.4,43.8z"></path> <path d="M818.2,7.4h23.1v5.8h-46.2v12.4c0,8.3-0.8,15.7-1.7,20.6s-2.5,9.1-4.1,13.2l-5-5.8c1.7-3.3,3.3-8.3,4.1-12.4 s0.8-9.1,0.8-16.5V7.4h22.3V0h6.6V7.4z M794.3,50.4c2.5-5.8,4.1-12.4,5.8-20.6l5.8,1.7c-0.8,9.1-2.5,16.5-5.8,23.1L794.3,50.4z M809.1,27.2h6.6v22.3c0,0.8,0,1.7,0.8,1.7s1.7,0,3.3,0c2.5,0,3.3,0,4.1,0s0.8-0.8,1.7-1.7c0-1.7,0.8-4.1,0.8-9.9l6.6,1.7 c0,6.6-0.8,10.7-1.7,12.4c-0.8,0.8-1.7,1.7-3.3,2.5c-1.7,1.7-4.1,1.7-8.3,1.7c-4.1,0-7.4,0-8.3-0.8c-1.7,0-2.5-1.7-2.5-4.1V27.2 z M822.3,28.9c-3.3-4.1-8.3-7.4-12.4-10.7l4.1-4.1c5,3.3,9.9,6.6,13.2,9.9L822.3,28.9z M838,51.2c-3.3-8.3-6.6-14.9-9.9-20.6 l5.8-3.3c4.1,5.8,7.4,12.4,10.7,19.8L838,51.2z"></path> </g> <g> <g> <g> <path d="M828.1,79.3c6.6-0.8,16.5-1.7,26.4-1.7c14,0,22.3,2.5,28.9,7.4c5,4.1,8.3,9.9,8.3,17.3c0,11.6-8.3,19-16.5,21.5l0,0 c6.6,2.5,9.9,8.3,12.4,16.5c3.3,10.7,5.8,21.5,7.4,24.8h-17.3c-1.7-2.5-3.3-9.1-6.6-20.6c-2.5-11.6-7.4-14.9-17.3-15.7h-9.9 v35.5h-16.5v-85H828.1z M844.6,118.1h11.6c11.6,0,19-5.8,19-14c0-9.9-7.4-14-18.2-14c-5.8,0-9.9,0.8-11.6,0.8v27.2H844.6z"></path> <path d="M934.6,78.4h16.5v55.3c0,24.8-12.4,33.9-31.4,33.9c-5,0-11.6-0.8-15.7-2.5l2.5-13.2c3.3,0.8,6.6,1.7,11.6,1.7 c9.9,0,16.5-5,16.5-20.6V78.4z"></path> <path d="M1038.6,162.6c-4.1,2.5-14,5-25.6,5c-30.5,0-48.7-18.2-48.7-44.6c0-27.2,20.6-46.2,51.2-46.2 c12.4,0,20.6,2.5,24.8,4.1l-4.1,13.2c-5-2.5-11.6-4.1-19.8-4.1c-20.6,0-34.7,11.6-34.7,32.2c0,18.2,12.4,31.4,33.9,31.4 c7.4,0,15.7-1.7,20.6-3.3L1038.6,162.6z"></path> </g> </g> <g> <path d="M286.5,131.3h-25.6c-1.7,8.3-5,14.9-9.1,19.8c-6.6,7.4-16.5,13.2-31.4,18.2l-5.8-9.1c19.8-5,31.4-14.9,34.7-28.9h-30.5 v-9.1H251l0.8-10.7h12.4l-0.8,10.7h35.5v5.8c-0.8,15.7-1.7,25.6-3.3,30.5c-0.8,4.1-3.3,6.6-5.8,7.4c-1.7,0.8-5,1.7-8.3,1.7 c-5,0-11.6-0.8-19.8-1.7l-2.5-9.1c6.6,0.8,13.2,1.7,19.8,1.7c2.5,0,4.1-0.8,5-1.7c1.7-2.5,2.5-9.9,3.3-22.3L286.5,131.3z M293.1,105.7h-65.2v12.4h-10.7V97.4h56.1c4.1-6.6,8.3-13.2,11.6-20.6l10.7,4.1c-3.3,5.8-7.4,11.6-11.6,16.5h19.8v20.6h-10.7 C293.1,118.1,293.1,105.7,293.1,105.7z M232.8,96.6c-1.7-5-5-10.7-7.4-14.9l9.9-4.1c3.3,4.1,5.8,9.1,8.3,14.9L232.8,96.6z M256.8,95.8c-2.5-6.6-5-11.6-7.4-16.5l9.9-4.1c3.3,5.8,6.6,10.7,8.3,15.7L256.8,95.8z"></path> <path d="M364.1,123.8c0,6.6,3.3,14,8.3,20.6c3.3,3.3,7.4,6.6,13.2,9.1c5.8,2.5,11.6,4.1,19,5.8l-6.6,9.9 c-19.8-5.8-33-14.9-39.6-27.2c-2.5,7.4-7.4,14-14,18.2c-6.6,4.1-15.7,7.4-26.4,9.9l-4.1-9.1c14.9-2.5,25.6-6.6,31.4-12.4 c5.8-5.8,9.1-14.9,9.1-25.6v-5.8h10.7v6.6H364.1z M316.2,96.6c6.6-6.6,11.6-13.2,14.9-20.6l9.9,4.1 c-3.3,5.8-7.4,10.7-12.4,15.7c0,0,0,0-0.8,0.8c4.1,4.1,9.1,9.1,13.2,14.9l-9.9,6.6C327.8,110.6,322.8,104,316.2,96.6z M318.7,140.4c5-5,8.3-11.6,11.6-19.8l9.9,3.3c-3.3,9.1-7.4,16.5-12.4,22.3L318.7,140.4z M344.3,96.6 c5.8-6.6,10.7-13.2,14-20.6l9.9,4.1c-3.3,5.8-7.4,10.7-11.6,15.7c3.3,2.5,7.4,6.6,11.6,12.4l1.7,1.7l-8.3,5.8 C356.7,108.2,350.9,102.4,344.3,96.6z M373.2,96.6c0,0,0.8-0.8,1.7-1.7c5-5,9.1-11.6,12.4-19l9.9,4.1 c-3.3,5.8-7.4,10.7-10.7,14.9c5,4.1,9.1,9.1,14,14l-8.3,6.6C386.4,109.8,380.6,102.4,373.2,96.6z M376.5,137.9 c5-5.8,9.1-12.4,11.6-19l10.7,4.1c-5,8.3-9.1,14.9-14,19.8L376.5,137.9z"></path> <path d="M428.5,95.8h4.1V76h9.9v19.8h8.3v9.9h-8.3v16.5c3.3-0.8,6.6-2.5,9.9-3.3l0.8,7.4h33.9v-10.7H450v-9.1h24.8V95.8h-19.8 v-9.1h19.8V76h9.9v10.7h19v9.1H483v10.7h25.6v9.1h-13.2v9.9h10.7v9.1h-10.7v25.6c0,3.3-0.8,5.8-2.5,7.4 c-1.7,0.8-4.1,1.7-7.4,1.7c-4.1,0-8.3,0-11.6-0.8l-1.7-9.1c4.1,0.8,8.3,0.8,10.7,0.8c1.7,0,2.5,0,2.5-0.8 c0-0.8,0.8-0.8,0.8-2.5v-22.3h-35.5V128c-3.3,1.7-5.8,2.5-8.3,3.3v38h-9.9v-34.7c-5,1.7-9.9,3.3-14.9,5l-2.5-9.9 c6.6-1.7,12.4-3.3,17.3-5v-19.8h-5.8c-0.8,5.8-2.5,10.7-4.1,15.7l-8.3-5c3.3-9.1,5-19.8,5.8-32.2l9.1,0.8 C429.3,89.2,428.5,92.5,428.5,95.8z M467.3,156.9c-3.3-6.6-6.6-12.4-9.9-17.3l9.1-5c4.1,5,7.4,10.7,9.9,16.5L467.3,156.9z"></path> <path d="M543.3,111.5c0,3.3,0,7.4-0.8,10.7h23.1c-0.8,19.8-1.7,32.2-2.5,37.2c-0.8,3.3-2.5,5.8-4.1,6.6 c-1.7,0.8-4.1,1.7-7.4,1.7c-3.3,0-6.6,0-10.7-0.8l-1.7-9.9c4.1,0.8,7.4,1.7,9.9,1.7c2.5,0,3.3-0.8,4.1-1.7 c1.7-3.3,2.5-11.6,2.5-25.6h-14v0.8c-2.5,15.7-8.3,28.1-17.3,37.2l-7.4-7.4c7.4-5.8,11.6-14,14-23.1c1.7-6.6,2.5-15.7,3.3-25.6 h-10.7V79.3h42.1v32.2H543.3z M532.5,88.3V104h22.3V88.3H532.5z M573.8,83.4h9.9v60.3h-9.9V83.4z M595.3,77.6H606v80.1 c0,4.1-0.8,7.4-3.3,8.3c-1.7,0.8-5,1.7-9.1,1.7c-4.1,0-9.1,0-14.9-0.8l-1.7-9.9c5.8,0.8,10.7,1.7,14.9,1.7c1.7,0,3.3,0,3.3-0.8 s0-1.7,0-2.5C595.3,155.2,595.3,77.6,595.3,77.6z"></path> <path d="M658,104.9h-9.9c-0.8,14.9-2.5,26.4-5,35.5c-3.3,10.7-8.3,19.8-14.9,27.2l-7.4-8.3c6.6-6.6,11.6-15.7,14-27.2 c1.7-6.6,2.5-15.7,3.3-27.2h-14.9v-9.1H639l0.8-19h9.9l-0.8,19h19c0,33.9-0.8,54.5-2.5,62.7c-0.8,3.3-2.5,5.8-4.1,6.6 c-1.7,0.8-4.1,0.8-6.6,0.8c-4.1,0-7.4,0-11.6-0.8l-1.7-9.9c4.1,0.8,7.4,0.8,9.9,0.8s3.3-0.8,4.1-1.7c1.7-3.3,2.5-19,3.3-47.9 L658,104.9z M710.9,90v75.1H701v-6.6h-15.7v7.4h-9.9V89.2h35.5V90z M685.3,99.1v49.5H701V99.1H685.3z"></path> <path d="M774.4,80.1v8.3c0,14,2.5,26.4,8.3,38s16.5,22.3,32.2,32.2l-7.4,9.1c-13.2-7.4-23.1-18.2-31.4-31.4 c-3.3-5.8-5.8-11.6-7.4-17.3v0.8c-2.5,9.9-5.8,17.3-10.7,23.9c-6.6,9.9-16.5,18.2-28.9,25.6l-7.4-9.1 c12.4-5.8,21.5-13.2,28.1-22.3c5.8-8.3,10.7-19,12.4-32.2c0.8-4.1,1.7-9.1,1.7-14.9h-24.8V80.1H774.4z"></path> </g> </g> </g> </g> <g> <polygon class="st0" points="52,53.7 138.7,140.4 164.3,140.4 77.6,53.7 "></polygon> <polygon class="st0" points="0,39.6 129.6,169.3 155.2,169.3 25.6,39.6 "></polygon> <path class="st0" d="M131.3,17.3c18.2,0,32.2,14,32.2,32.2c0,14-9.1,26.4-21.5,30.5l13.2,13.2c15.7-8.3,26.4-24.8,26.4-43.8 c0-27.2-22.3-49.5-49.5-49.5H41.3l16.5,17.3H131.3z"></path> <polygon class="st0" points="155.2,93.3 142,80.1 129.6,67.7 104,67.7 148.6,112.3 174.2,112.3 "></polygon> </g> </g> </svg> 