<?xml version="1.0" encoding="UTF-8"?> <svg xmlns="http://www.w3.org/2000/svg" xmlns:xlink="http://www.w3.org/1999/xlink" version="1.1" id="レイヤー_1" x="0px" y="0px" viewBox="0 0 125.9 20.6" style="enable-background:new 0 0 125.9 20.6;" xml:space="preserve"> <style type="text/css"> .st0{fill:#E66700;} </style> <g id="base_00000093877711673436972560000002110796701837608613_"> <g> <g> <g> <path d="M28.5,2.6c0,0.9-0.1,1.6-0.2,2C28.2,5,28.1,5.3,28,5.5c0.3,0.2,0.6,0.4,1,0.5c0.4,0.1,0.8,0.2,1.3,0.2h3.1 c-0.1,0.2-0.2,0.4-0.2,0.7h-2.9c-1.1,0-2-0.3-2.7-0.8c-0.3,0.4-0.6,0.7-1,1l-0.5-0.6c0.4-0.3,0.7-0.6,1-0.9 c-0.3-0.4-0.6-0.9-0.8-1.4l0.6-0.4c0.1,0.3,0.3,0.7,0.6,1.1c0.1-0.4,0.2-0.9,0.3-1.7h-1.4c0.4-0.6,0.7-1.4,1-2.2h-1.2V0.4h1.8 l0.3,0.3c-0.3,0.7-0.5,1.4-0.8,1.9H28.5z M31.1,3.3v0.5h1.8v0.6h-1.8v0.5h2v0.6h-2v0.7h-0.8V5.4h-1.7V4.8h1.7V4.3h-1.6V3.7h1.6 V3.3h-1.5V2.7h1.5V2.3h-1.9V1.7h1.9V1.3h-1.5V0.7h1.5V0h0.8v0.6h1.6v1h0.6v0.6h-0.6v1H31.1z M31.1,1.7H32V1.3h-0.9V1.7z M31.1,2.7H32V2.3h-0.9V2.7z"></path> <path d="M34.3,1.4h3.1V2h-3.1V1.4z M37.2,4.6v2.1h-1.9v0.4h-0.7V4.6H37.2z M34.7,0.3H37v0.6h-2.3V0.3z M34.7,2.5H37v0.6h-2.3 V2.5z M34.7,3.6H37v0.6h-2.3V3.6z M35.3,5.3v0.9h1.2V5.3H35.3z M39.9,5.6c0.5,0.3,1,0.6,1.6,0.9L41,7.1 c-0.7-0.3-1.3-0.7-1.8-1.1c-0.5,0.5-1.1,0.8-1.6,1.1l-0.4-0.7c0.5-0.2,1.1-0.5,1.6-0.9c-0.5-0.5-0.8-1-1-1.6h-0.4V3.4h3.3 L41,3.7C40.7,4.5,40.3,5.1,39.9,5.6z M37.9,0.3h2.3v1.8c0,0.1,0,0.1,0,0.2c0,0,0.1,0,0.2,0c0.1,0,0.2,0,0.2,0c0,0,0-0.1,0.1-0.2 c0-0.3,0-0.5,0-0.7l0.7,0.2c0,0.3,0,0.5-0.1,0.8c0,0.3-0.2,0.5-0.5,0.5c-0.1,0-0.3,0-0.5,0c-0.3,0-0.6,0-0.7-0.1 c-0.1-0.1-0.2-0.2-0.2-0.4V1h-0.9V1c0,0.5-0.1,0.9-0.2,1.2c-0.1,0.4-0.3,0.7-0.6,0.9l-0.5-0.5c0.3-0.2,0.5-0.5,0.6-0.9 c0-0.2,0.1-0.4,0.1-0.7V0.3z M39.3,5.1c0.3-0.4,0.6-0.7,0.7-1.1h-1.5C38.7,4.4,38.9,4.8,39.3,5.1L39.3,5.1z"></path> <path d="M46.3,3.2v0.4h2.5v0.5h-2.5v0.4h3.2v0.6h-2.4c0.7,0.4,1.5,0.8,2.5,1.1l-0.5,0.7c-1.1-0.4-2-0.9-2.8-1.6v1.9h-0.8V5.3 C44.9,6.1,44,6.7,42.8,7l-0.5-0.6c1-0.3,1.8-0.7,2.5-1.2h-2.5V4.5h3.1V4.1h-2.5V3.6h2.5V3.2h-2.8V2.7h1.7 c-0.1-0.3-0.3-0.5-0.4-0.7h-1.5V1.3h1.2l0,0c-0.2-0.3-0.4-0.6-0.5-0.9l0.7-0.3c0.2,0.3,0.4,0.6,0.6,0.9l-0.6,0.2h1V0h0.7v1.3 h0.6V0H47v1.3h1l-0.6-0.2c0.2-0.3,0.3-0.6,0.5-1l0.8,0.2c-0.2,0.4-0.4,0.8-0.6,1h1.3v0.6h-1.6c-0.1,0.3-0.2,0.5-0.4,0.7h1.8v0.6 H46.3z M45.3,2.7h1.3c0.1-0.2,0.3-0.5,0.4-0.7h-2C45.1,2.1,45.2,2.4,45.3,2.7z"></path> <path d="M53.6,1.6V1.2h-3V0.6h3V0h0.8v0.5h3v0.6h-3v0.4H57v2.7h-1v0.5h1.6v0.6H56v1.1c0,0.3-0.1,0.5-0.2,0.6 c-0.1,0.1-0.3,0.1-0.6,0.1c-0.4,0-0.7,0-1.1,0l-0.2-0.7c0.4,0,0.7,0.1,1.1,0.1c0.1,0,0.2,0,0.2-0.1c0,0,0-0.1,0-0.2V5.4h-4.7 V4.7h4.7V4.2h-4V1.6H53.6z M52.9,6.9c-0.3-0.4-0.7-0.7-1.2-1.1l0.6-0.4c0.4,0.3,0.9,0.6,1.3,1L52.9,6.9z M53.7,2.1h-1.7v0.5h1.7 V2.1z M53.7,3.2h-1.7v0.5h1.7V3.2z M54.4,2.1v0.5h1.8V2.1H54.4z M54.4,3.2v0.5h1.8V3.2H54.4z"></path> <path d="M61.6,0.3v2.9h-2.1v3.9h-0.8V0.3H61.6z M59.5,0.9v0.6h1.3V0.9H59.5z M59.5,2v0.6h1.3V2H59.5z M65.2,0.3v6 c0,0.3,0,0.4-0.1,0.6C65,7,64.8,7.1,64.4,7.1c-0.4,0-0.8,0-1.3,0L63,6.3c0.5,0.1,0.9,0.1,1.2,0.1c0.1,0,0.2,0,0.2-0.1 c0,0,0-0.1,0-0.2V3.3h-2.1V0.3H65.2z M64.4,0.9h-1.4v0.6h1.4V0.9z M64.4,2h-1.4v0.6h1.4V2z"></path> <path d="M75.2,3.1v1.1h2.4v0.7h-2.4v1.3h3.1v0.7h-6.9V6.2h3V4.9H72V4.2h2.3V3.1h-1.6V2.8c-0.3,0.2-0.7,0.5-1.1,0.7l-0.5-0.7 c0.8-0.4,1.4-0.8,2-1.2c0.4-0.4,0.8-0.9,1.2-1.5h0.9c0.5,0.7,1.2,1.3,1.9,1.8c0.4,0.3,0.9,0.5,1.4,0.8L78,3.3 c-0.4-0.2-0.7-0.4-1.1-0.6v0.5H75.2z M76.5,2.4c-0.7-0.5-1.3-1-1.8-1.7c-0.4,0.6-0.9,1.2-1.5,1.7H76.5z"></path> <path d="M86.1,0.4v6.8h-0.8V6.8h-5v0.4h-0.8V0.4H86.1z M80.3,1.1v5h5v-5H80.3z M83.1,2.2v0.9h1.6v0.6h-0.7 c0.2,0.2,0.5,0.4,0.7,0.8l-0.6,0.4c-0.2-0.3-0.4-0.6-0.8-0.8l0.5-0.3h-0.8v1.2h1.9v0.6h-4.3V4.9h1.7V3.7h-1.4V3.1h1.4V2.2h-1.6 V1.6h4.2v0.6H83.1z"></path> <path d="M89.3,1.4h1.5v0.4h1.8V0h0.8v1.7h0.9v0.7h-0.9v3.8c0,0.2,0,0.4-0.1,0.5C93.2,7,93,7.1,92.8,7.1c-0.4,0-0.8,0-1.2-0.1 l-0.2-0.8c0.4,0.1,0.8,0.1,1,0.1c0.1,0,0.2,0,0.2-0.1c0,0,0-0.1,0-0.2V2.5h-1.9V2.1h-0.4c-0.1,0.9-0.3,1.7-0.5,2.4 C89.9,4.7,90,4.8,90,4.9c0.2,0.3,0.4,0.6,0.6,0.8l-0.6,0.6c-0.2-0.3-0.4-0.6-0.6-0.9l-0.1-0.1c-0.4,0.8-1,1.4-1.6,1.8l-0.5-0.6 c0.7-0.5,1.2-1.1,1.6-1.9c-0.1-0.2-0.3-0.3-0.3-0.4c-0.4-0.5-0.7-0.9-1-1.2L88,2.5c0.3,0.3,0.7,0.8,1.1,1.3 c0.2-0.5,0.3-1.1,0.3-1.7h-2.3V1.4h1.3V0h0.8V1.4z M91.5,5.3c-0.2-0.7-0.5-1.4-0.8-2l0.7-0.4c0.4,0.6,0.7,1.3,0.9,2L91.5,5.3z"></path> <path d="M99.1,0.9h2.8v0.7h-5.6v1.5c0,1-0.1,1.9-0.2,2.5c-0.1,0.6-0.3,1.1-0.5,1.6L95,6.5c0.2-0.4,0.4-1,0.5-1.5 c0.1-0.5,0.1-1.1,0.1-2V0.9h2.7V0h0.8V0.9z M96.2,6.1c0.3-0.7,0.5-1.5,0.7-2.5l0.7,0.2c-0.1,1.1-0.3,2-0.7,2.8L96.2,6.1z M98,3.3h0.8V6c0,0.1,0,0.2,0.1,0.2c0.1,0,0.2,0,0.4,0c0.3,0,0.4,0,0.5,0c0.1,0,0.1-0.1,0.2-0.2c0-0.2,0.1-0.5,0.1-1.2l0.8,0.2 c0,0.8-0.1,1.3-0.2,1.5c-0.1,0.1-0.2,0.2-0.4,0.3C100.1,7,99.8,7,99.3,7c-0.5,0-0.9,0-1-0.1C98.1,6.9,98,6.7,98,6.4V3.3z M99.6,3.5c-0.4-0.5-1-0.9-1.5-1.3l0.5-0.5c0.6,0.4,1.2,0.8,1.6,1.2L99.6,3.5z M101.5,6.2c-0.4-1-0.8-1.8-1.2-2.5l0.7-0.4 c0.5,0.7,0.9,1.5,1.3,2.4L101.5,6.2z"></path> </g> <g> <g> <g> <path d="M100.3,9.6c0.8-0.1,2-0.2,3.2-0.2c1.7,0,2.7,0.3,3.5,0.9c0.6,0.5,1,1.2,1,2.1c0,1.4-1,2.3-2,2.6v0 c0.8,0.3,1.2,1,1.5,2c0.4,1.3,0.7,2.6,0.9,3h-2.1c-0.2-0.3-0.4-1.1-0.8-2.5c-0.3-1.4-0.9-1.8-2.1-1.9h-1.2v4.3h-2V9.6z M102.3,14.3h1.4c1.4,0,2.3-0.7,2.3-1.7c0-1.2-0.9-1.7-2.2-1.7c-0.7,0-1.2,0.1-1.4,0.1V14.3z"></path> <path d="M113.2,9.5h2v6.7c0,3-1.5,4.1-3.8,4.1c-0.6,0-1.4-0.1-1.9-0.3l0.3-1.6c0.4,0.1,0.8,0.2,1.4,0.2c1.2,0,2-0.6,2-2.5V9.5 z"></path> <path d="M125.8,19.7c-0.5,0.3-1.7,0.6-3.1,0.6c-3.7,0-5.9-2.2-5.9-5.4c0-3.3,2.5-5.6,6.2-5.6c1.5,0,2.5,0.3,3,0.5l-0.5,1.6 c-0.6-0.3-1.4-0.5-2.4-0.5c-2.5,0-4.2,1.4-4.2,3.9c0,2.2,1.5,3.8,4.1,3.8c0.9,0,1.9-0.2,2.5-0.4L125.8,19.7z"></path> </g> </g> <g> <path d="M34.7,15.9h-3.1c-0.2,1-0.6,1.8-1.1,2.4c-0.8,0.9-2,1.6-3.8,2.2l-0.7-1.1c2.4-0.6,3.8-1.8,4.2-3.5h-3.7v-1.1h3.9 l0.1-1.3H32l-0.1,1.3h4.3l0,0.7c-0.1,1.9-0.2,3.1-0.4,3.7c-0.1,0.5-0.4,0.8-0.7,0.9c-0.2,0.1-0.6,0.2-1,0.2 c-0.6,0-1.4-0.1-2.4-0.2L31.4,19c0.8,0.1,1.6,0.2,2.4,0.2c0.3,0,0.5-0.1,0.6-0.2c0.2-0.3,0.3-1.2,0.4-2.7L34.7,15.9z M35.5,12.8h-7.9v1.5h-1.3v-2.5h6.8c0.5-0.8,1-1.6,1.4-2.5l1.3,0.5c-0.4,0.7-0.9,1.4-1.4,2h2.4v2.5h-1.3V12.8z M28.2,11.7 c-0.2-0.6-0.6-1.3-0.9-1.8l1.2-0.5c0.4,0.5,0.7,1.1,1,1.8L28.2,11.7z M31.1,11.6c-0.3-0.8-0.6-1.4-0.9-2l1.2-0.5 c0.4,0.7,0.8,1.3,1,1.9L31.1,11.6z"></path> <path d="M44.1,15c0,0.8,0.4,1.7,1,2.5c0.4,0.4,0.9,0.8,1.6,1.1c0.7,0.3,1.4,0.5,2.3,0.7l-0.8,1.2c-2.4-0.7-4-1.8-4.8-3.3 c-0.3,0.9-0.9,1.7-1.7,2.2c-0.8,0.5-1.9,0.9-3.2,1.2L38,19.5c1.8-0.3,3.1-0.8,3.8-1.5c0.7-0.7,1.1-1.8,1.1-3.1v-0.7h1.3V15z M38.3,11.7c0.8-0.8,1.4-1.6,1.8-2.5l1.2,0.5c-0.4,0.7-0.9,1.3-1.5,1.9c0,0,0,0-0.1,0.1c0.5,0.5,1.1,1.1,1.6,1.8l-1.2,0.8 C39.7,13.4,39.1,12.6,38.3,11.7z M38.6,17c0.6-0.6,1-1.4,1.4-2.4l1.2,0.4c-0.4,1.1-0.9,2-1.5,2.7L38.6,17z M41.7,11.7 c0.7-0.8,1.3-1.6,1.7-2.5l1.2,0.5c-0.4,0.7-0.9,1.3-1.4,1.9c0.4,0.3,0.9,0.8,1.4,1.5l0.2,0.2L43.8,14 C43.2,13.1,42.5,12.4,41.7,11.7z M45.2,11.7c0,0,0.1-0.1,0.2-0.2c0.6-0.6,1.1-1.4,1.5-2.3l1.2,0.5c-0.4,0.7-0.9,1.3-1.3,1.8 c0.6,0.5,1.1,1.1,1.7,1.7l-1,0.8C46.8,13.3,46.1,12.4,45.2,11.7z M45.6,16.7c0.6-0.7,1.1-1.5,1.4-2.3l1.3,0.5 c-0.6,1-1.1,1.8-1.7,2.4L45.6,16.7z"></path> <path d="M51.9,11.6h0.5V9.2h1.2v2.4h1v1.2h-1v2c0.4-0.1,0.8-0.3,1.2-0.4l0.1,0.9h4.1V14h-4.5v-1.1h3v-1.3h-2.4v-1.1h2.4V9.2 h1.2v1.3H61v1.1h-2.5v1.3h3.1V14h-1.6v1.2h1.3v1.1h-1.3v3.1c0,0.4-0.1,0.7-0.3,0.9c-0.2,0.1-0.5,0.2-0.9,0.2 c-0.5,0-1,0-1.4-0.1l-0.2-1.1c0.5,0.1,1,0.1,1.3,0.1c0.2,0,0.3,0,0.3-0.1c0-0.1,0.1-0.1,0.1-0.3v-2.7h-4.3v-0.8 c-0.4,0.2-0.7,0.3-1,0.4v4.6h-1.2v-4.2c-0.6,0.2-1.2,0.4-1.8,0.6l-0.3-1.2c0.8-0.2,1.5-0.4,2.1-0.6v-2.4h-0.7 c-0.1,0.7-0.3,1.3-0.5,1.9l-1-0.6c0.4-1.1,0.6-2.4,0.7-3.9l1.1,0.1C52,10.8,51.9,11.2,51.9,11.6z M56.6,19 c-0.4-0.8-0.8-1.5-1.2-2.1l1.1-0.6c0.5,0.6,0.9,1.3,1.2,2L56.6,19z"></path> <path d="M65.8,13.5c0,0.4,0,0.9-0.1,1.3h2.8c-0.1,2.4-0.2,3.9-0.3,4.5c-0.1,0.4-0.3,0.7-0.5,0.8c-0.2,0.1-0.5,0.2-0.9,0.2 c-0.4,0-0.8,0-1.3-0.1l-0.2-1.2c0.5,0.1,0.9,0.2,1.2,0.2c0.3,0,0.4-0.1,0.5-0.2c0.2-0.4,0.3-1.4,0.3-3.1h-1.7l0,0.1 c-0.3,1.9-1,3.4-2.1,4.5l-0.9-0.9c0.9-0.7,1.4-1.7,1.7-2.8c0.2-0.8,0.3-1.9,0.4-3.1h-1.3V9.6h5.1v3.9H65.8z M64.5,10.7v1.9h2.7 v-1.9H64.5z M69.5,10.1h1.2v7.3h-1.2V10.1z M72.1,9.4h1.3v9.7c0,0.5-0.1,0.9-0.4,1c-0.2,0.1-0.6,0.2-1.1,0.2 c-0.5,0-1.1,0-1.8-0.1L69.9,19c0.7,0.1,1.3,0.2,1.8,0.2c0.2,0,0.4,0,0.4-0.1c0-0.1,0-0.2,0-0.3V9.4z"></path> <path d="M79.7,12.7h-1.2c-0.1,1.8-0.3,3.2-0.6,4.3c-0.4,1.3-1,2.4-1.8,3.3l-0.9-1c0.8-0.8,1.4-1.9,1.7-3.3 c0.2-0.8,0.3-1.9,0.4-3.3h-1.8v-1.1h1.9l0.1-2.3h1.2l-0.1,2.3h2.3c0,4.1-0.1,6.6-0.3,7.6c-0.1,0.4-0.3,0.7-0.5,0.8 c-0.2,0.1-0.5,0.1-0.8,0.1c-0.5,0-0.9,0-1.4-0.1l-0.2-1.2c0.5,0.1,0.9,0.1,1.2,0.1c0.3,0,0.4-0.1,0.5-0.2 c0.2-0.4,0.3-2.3,0.4-5.8L79.7,12.7z M86.1,10.9V20h-1.2v-0.8H83v0.9h-1.2v-9.3H86.1z M83,12v6h1.9v-6H83z"></path> <path d="M93.8,9.7v1c0,1.7,0.3,3.2,1,4.6c0.7,1.4,2,2.7,3.9,3.9l-0.9,1.1c-1.6-0.9-2.8-2.2-3.8-3.8c-0.4-0.7-0.7-1.4-0.9-2.1 l0,0.1c-0.3,1.2-0.7,2.1-1.3,2.9c-0.8,1.2-2,2.2-3.5,3.1l-0.9-1.1c1.5-0.7,2.6-1.6,3.4-2.7c0.7-1,1.3-2.3,1.5-3.9 c0.1-0.5,0.2-1.1,0.2-1.8h-3V9.7H93.8z"></path> </g> </g> </g> </g> <g> <polygon class="st0" points="6.3,6.5 16.8,17 19.9,17 9.4,6.5 "></polygon> <polygon class="st0" points="0,4.8 15.7,20.5 18.8,20.5 3.1,4.8 "></polygon> <path class="st0" d="M15.9,2.1c2.2,0,3.9,1.7,3.9,3.9c0,1.7-1.1,3.2-2.6,3.7l1.6,1.6c1.9-1,3.2-3,3.2-5.3c0-3.3-2.7-6-6-6h-11 L7,2.1H15.9z"></path> <polygon class="st0" points="18.8,11.3 17.2,9.7 15.7,8.2 12.6,8.2 18,13.6 21.1,13.6 "></polygon> </g> </g> </svg> 