<svg height="41.313" viewBox="0 0 41.313 41.313" width="41.313" xmlns="http://www.w3.org/2000/svg"><g fill="#4c7c7c"><path d="m105.733 114.5c-2.757 1.718-3.3 7.09-2.258 11.468a38.728 38.728 0 0 0 5.441 12.289 41.777 41.777 0 0 0 9.458 9.786c3.735 2.7 9.06 4.414 11.817 2.7a13.63 13.63 0 0 0 3.56-3.669l-1.481-2.195-4.073-6.035c-.3-.448-2.2-.039-3.165.486a8.948 8.948 0 0 0 -2.5 2.609c-.892.5-1.639 0-3.2-.688-1.918-.848-4.075-3.484-5.792-5.871-1.568-2.48-3.192-5.447-3.216-7.476-.019-1.651-.183-2.508.651-3.088a9.451 9.451 0 0 0 3.5-1.129c.892-.632 2.056-2.13 1.753-2.579l-4.073-6.036-1.481-2.195a14.356 14.356 0 0 0 -4.941 1.623z" transform="translate(-102.982 -110.115)"/><path d="m283.126 23.237a17.17 17.17 0 0 0 -12-20.547l.752-2.69a19.952 19.952 0 0 1 14 23.974z" transform="translate(-245.179)"/><path d="m266.669 60.061a11.137 11.137 0 0 0 -7.664-13.12l.755-2.691a13.919 13.919 0 0 1 9.667 16.55z" transform="translate(-234.697 -38.42)"/><path d="m250.19 96.9a5.1 5.1 0 0 0 -3.32-5.684l.757-2.7a7.888 7.888 0 0 1 5.327 9.119z" transform="translate(-224.2 -76.861)"/></g></svg>