<?xml version="1.0" encoding="utf-8"?>
<!-- Generator: Adobe Illustrator 26.5.2, SVG Export Plug-In . SVG Version: 6.00 Build 0)  -->
<svg version="1.1" id="_x32_" xmlns="http://www.w3.org/2000/svg" xmlns:xlink="http://www.w3.org/1999/xlink" x="0px" y="0px"
	 viewBox="0 0 512 512" style="enable-background:new 0 0 512 512;" xml:space="preserve">
<style type="text/css">
	.st0{fill:#FFBE2C;}
</style>
<g>
	<path class="st0" d="M505.1,407.1L300.8,53.2c-9.2-15.9-26.4-25.8-44.8-25.8c-18.4,0-35.6,9.9-44.8,25.8L6.9,407.1
		c-9.2,15.9-9.2,35.7,0,51.7s26.4,25.8,44.8,25.8h408.7c18.4,0,35.6-9.9,44.8-25.8C514.3,442.9,514.3,423.1,505.1,407.1z M256,426.4
		c-17.7,0-32-14.3-32-32c0-17.7,14.3-32,32-32c17.7,0,32,14.3,32,32C288,412.1,273.7,426.4,256,426.4z M275.7,324
		c0,10.9-8.8,19.7-19.7,19.7c-10.9,0-19.7-8.8-19.7-19.7L224,179.3c0-17.7,14.3-32,32-32c17.7,0,32,14.3,32,32L275.7,324z"/>
</g>
</svg>
