<?xml version="1.0" encoding="UTF-8"?> <svg xmlns="http://www.w3.org/2000/svg" xmlns:xlink="http://www.w3.org/1999/xlink" version="1.1" id="レイヤー_1" x="0px" y="0px" viewBox="0 0 193.6 198.6" style="enable-background:new 0 0 193.6 198.6;" xml:space="preserve"> <style type="text/css"> .st0{display:none;fill:#EFECEC;} .st1{clip-path:url(#SVGID_00000077302701142439313640000002203626654062237318_);} .st2{fill:#666767;} </style> <g> <circle class="st0" cx="96.8" cy="99.6" r="96.2"></circle> <g> <g> <defs> <circle id="SVGID_1_" cx="96.8" cy="99.1" r="96.2"></circle> </defs> <clipPath id="SVGID_00000163042978840619245800000010415328209327204486_"> <use xlink:href="#SVGID_1_" style="overflow:visible;"></use> </clipPath> <g style="clip-path:url(#SVGID_00000163042978840619245800000010415328209327204486_);"> <path class="st2" d="M116.4,146.1l-3.1,6c-10,6.7-22.9,6.7-33,0l-3.1-6c0.8-1.2,1.4-2.7,2-4.6h-7.5c-0.3,0.6-0.5,1.1-0.8,1.3 c-4.5,2-11.2,3.3-17.8,4.6c-11,2.2-20.5,4-24.2,9.2c-5.3,7.4-6.9,30-7,32.6c-0.1,1.6,0.3,4.1,2.7,6.6c9,9.4,42.7,13.8,70.9,14 c0,0,2.4,0,2.5,0c28.2-0.2,61.9-4.6,70.9-14c2.4-2.5,2.8-5,2.7-6.6c-0.2-2.6-1.7-25.2-7-32.6c-3.7-5.2-13.2-7-24.2-9.2 c-6.5-1.3-13.3-2.6-17.8-4.6c-0.3-0.2-0.5-0.7-0.8-1.3h-7.5C114.9,143.4,115.6,145,116.4,146.1z M73.7,152.5l14.8,28.7L75,172.4 c-0.5-0.3-1.1-0.5-1.7-0.5c-0.3,0-0.5,0-0.8,0.1l-9.3,2.5L73.7,152.5z M139,154.2c7.9,1.6,17.7,3.5,19.8,6.4 c3.2,4.4,5.2,20.2,5.8,29.1l0,0c0,0.5-0.4,1.1-0.8,1.4c-6.3,6.6-35.7,11.8-67,11.8c-31.3-0.1-60.7-5.2-67-11.8 c-0.4-0.4-0.8-1-0.8-1.4l0,0c0.6-8.9,2.6-24.7,5.8-29.1c2.1-2.9,11.9-4.8,19.8-6.4c4.4-0.9,8.9-1.8,13-2.9L55,177.7 c-0.5,1-0.3,2.3,0.4,3.1c0.8,0.9,2,1.2,3.1,0.9l14.2-3.8l21.9,14.2c0.5,0.3,1.1,0.5,1.7,0.5h0.9c0.6,0,1.2-0.2,1.7-0.5 l21.9-14.2l14.2,3.8c1.1,0.3,2.4-0.1,3.1-0.9c0.8-0.9,0.9-2.1,0.4-3.1L126,151.3C130.1,152.5,134.6,153.3,139,154.2z M130.3,174.5L121,172c-0.8-0.2-1.8-0.1-2.5,0.4l-13.5,8.8l14.8-28.7L130.3,174.5z"></path> <g> <path class="st2" d="M140.1,83.1c2.2-2.7,3-6.7,2.2-11.9c-0.1-0.9-0.3-1.7-5.6-1.1L136.5,86C137.7,85.3,139,84.4,140.1,83.1z"></path> <path class="st2" d="M81.8,135.4c0.9-4.3,1.3-8.7,1.3-9.4v-0.3c0-2.3,0-8.3-5-12.3c-4.9-3.9-13.2-12.4-13.3-25.1l-0.3-18.4 c3.3-4,7-9.7,7.9-9.2c0.8,0.5-3.3,11.2-0.8,8c3.3-4.3,11.9-12.2,11.9-12.2s13.3,15.7,35.7,17.4c1.2,0.1-5-10.9-3.1-8 c1.4,2.1,7.8,6.2,12.9,9.2l-0.2,13.2c-0.2,12.8-8.4,21.2-13.3,25.1c-5,4-5,10-5,12.3v0.3c0,0.7,0.4,5.1,1.3,9.4 c0.5,2.4,1.1,4.4,1.7,6.2h8.3c-3-4.5-3.9-15.6-3.9-15.6c0-1.6-0.2-4.8,2.1-6.7c8-6.3,14-15.2,15.7-25.6 c2.8-0.8,6.7-2.4,9.6-6.1c3.6-4.4,4.8-10.2,3.8-17.5c-0.4-2.7-1.7-4.7-3.7-6c0.2-1.7,1.3-11.9-1.4-18c-2.8-6.3-7-9.6-7-9.6 l4.8-0.3c0,0-3.8-4.4-9.9-9.5c-8-6.6-22.4-8.8-22.4-8.8l3.8-3.6c0,0-6.9-2.2-14.9-1.6c-12.2,0.9-17.1,5.7-17.1,5.7 s-3.3-1.6-12.6,0.9c-12.2,3.2-16,17.3-16,17.3l8.7-5.4c0,0-6.3,4.5-9.2,10.5c-3,6.1-3.7,18.8-3.9,22.2 c-2.3,1.2-3.8,3.4-4.2,6.3c-1,7.2,0.3,13.1,3.8,17.5c3,3.6,6.9,5.3,9.6,6.1c1.7,10.4,7.7,19.2,15.7,25.6c2.3,1.8,2.1,5,2.1,6.7 c0,0-0.9,11.1-3.9,15.6h8.3C80.7,139.8,81.3,137.7,81.8,135.4z M53.7,83.1c-2.2-2.7-3-6.8-2.3-11.9c0.1-0.7,0.2-1.3,2.6-1.3 c0.8,0,1.7,0.1,3,0.2L57.3,86C56,85.3,54.7,84.4,53.7,83.1z"></path> </g> </g> </g> </g> </g> </svg> 