<?xml version="1.0" encoding="UTF-8"?> <svg xmlns="http://www.w3.org/2000/svg" xmlns:xlink="http://www.w3.org/1999/xlink" version="1.1" id="レイヤー_1" x="0px" y="0px" viewBox="0 0 193.6 198.6" style="enable-background:new 0 0 193.6 198.6;" xml:space="preserve"> <style type="text/css"> .st0{display:none;fill:#EFECEC;} .st1{clip-path:url(#SVGID_00000181051067449746903780000004701920798192067201_);fill:#666666;} </style> <g> <circle class="st0" cx="96.8" cy="99.3" r="96.2"></circle> <g> <g> <defs> <circle id="SVGID_1_" cx="96.8" cy="99.3" r="96.2"></circle> </defs> <clipPath id="SVGID_00000005249638959148478820000015004358903677601433_"> <use xlink:href="#SVGID_1_" style="overflow:visible;"></use> </clipPath> <path style="clip-path:url(#SVGID_00000005249638959148478820000015004358903677601433_);fill:#666666;" d="M169.5,188.5 c-0.2-2.6-1.7-25.2-6.8-32.6c-3.6-5.1-12.8-7-23.5-9.2c-6.4-1.3-12.9-2.6-17.3-4.6c-1.2-1.1-2.8-7.3-3.2-12.9V129 c0-1,0-2.6,0.7-3.1c8.5-6.7,13.9-15.7,15.6-25.3c2.1-1.1,4.9-2.9,7.4-5.5c4.2-4.5,5.9-10.1,4.8-16.1c-0.3-1.8-0.8-3.4-1.5-4.7 c1.6-0.3,2.5-1.8,2.3-3.5l-0.9-5.4c-0.3-1.9-2-3.4-3.8-3.5c-0.1-2.7-0.4-5.4-0.9-7.9h-28.7v-4.6h27.6 c-4.1-13.5-13.8-24.4-26.2-29.9l-1.4,15.9c-0.1,1.7-1.5,3-3.1,3c-0.1,0-0.2,0-0.3,0c-1.7-0.2-3-1.8-2.8-3.5l1.6-17.8 c0.1-1.2-0.2-2.4-1-3.2c-0.7-0.8-1.8-1.3-3-1.3H88.7c-1.2,0-2.2,0.5-3,1.3c-0.7,0.8-1.1,2-1,3.2L86.3,35c0.2,1.8-1.1,3.4-2.8,3.5 c-1.7,0.2-3.3-1.2-3.4-3l-1.4-15.9C66.2,25.1,56.6,36,52.5,49.5H80v4.6H51.3c-0.5,2.6-0.8,5.2-0.9,7.9c-1.8,0.2-3.5,1.7-3.8,3.5 L45.7,71c-0.3,1.7,0.7,3.2,2.3,3.5c-0.7,1.3-1.2,2.9-1.5,4.7c-1.1,6,0.6,11.6,4.8,16.1c2.4,2.6,5.3,4.4,7.4,5.5 c1.6,9.6,7.1,18.5,15.6,25.3c0.7,0.5,0.7,2.1,0.7,3.1v0.2c-0.5,5.6-2,11.8-3.2,12.9c-4.3,2-10.9,3.3-17.3,4.6 c-10.7,2.2-19.9,4-23.5,9.2c-5.2,7.4-6.7,29.9-6.8,32.6c-0.1,1.6,0.2,4.1,2.6,6.6c8.8,9.4,41.5,13.8,69,14c0,0,2.3,0,2.4,0 c27.4-0.2,60.2-4.6,69-14C169.3,192.6,169.6,190.2,169.5,188.5z M88.7,180.4l-13.1-8.7c-0.5-0.3-1.1-0.5-1.6-0.5 c-0.3,0-0.5,0-0.8,0.1l-9,2.5l10.2-22L88.7,180.4z M119.2,151.8l10.2,22l-9-2.5c-0.8-0.2-1.7-0.1-2.4,0.4l-13.1,8.7L119.2,151.8z M87,48.4h6.5v-6.5h6.5v6.5h6.5v6.5H100v6.5h-6.5v-6.5H87V48.4z M65.2,98.1c-0.1-1.2-0.9-2.3-2.1-2.8c-3.5-1.5-11.5-6-9.9-14.8 c0.4-2.3,1.2-3.8,2.2-4.3s2.5-0.1,3.7,0.5l6.7,6.2c0.8,0.7,2,0.1,2-0.9l-0.2-7.3H126l-0.2,7.3c0,1,1.2,1.6,2,0.9l6.7-6.2 c1.2-0.6,2.7-0.9,3.7-0.5c1,0.5,1.8,2,2.2,4.3c1.6,8.9-6.4,13.3-9.9,14.8c-1.1,0.5-1.9,1.5-2.1,2.8c-1,8.5-5.7,16.6-13.3,22.6 c-3.3,2.6-3.3,6.6-3.3,8.5v0.3c0,0.4,0.3,4.1,1.1,7.9c0.7,3.5,1.7,6.2,2.9,8.1l-3,5.9c-9.8,6.7-22.3,6.7-32.1,0l-3-5.9 c1.2-1.9,2.1-4.5,2.9-8.1c0.8-3.8,1.1-7.6,1.1-7.9v-0.3c0-1.9,0-5.9-3.3-8.5C70.9,114.6,66.2,106.6,65.2,98.1z M161.9,190.5 c-6.1,6.6-34.7,11.8-65.1,11.8c-30.5-0.1-59-5.2-65.1-11.8c-0.4-0.4-0.8-1-0.8-1.4l0,0c0.5-8.9,2.5-24.7,5.6-29.1 c2-2.9,11.6-4.8,19.2-6.4c4.3-0.9,8.7-1.8,12.6-2.9L56.2,177c-0.5,1-0.3,2.3,0.4,3.1c0.7,0.9,1.9,1.2,3,0.9l13.8-3.8l21.3,14.2 c0.5,0.3,1.1,0.5,1.6,0.5c0.1,0,0.7,0,0.8,0c0.6,0,1.1-0.2,1.6-0.5l21.3-14.2l13.8,3.8c1.1,0.3,2.3-0.1,3-0.9 c0.7-0.9,0.9-2.1,0.4-3.1L125,150.6c3.9,1.1,8.3,2,12.6,2.9c7.7,1.5,17.2,3.5,19.2,6.4c3.1,4.4,5.1,20.2,5.6,29.1l0,0 C162.7,189.5,162.3,190.1,161.9,190.5z"></path> </g> </g> </g> </svg> 