<?xml version="1.0" encoding="UTF-8"?> <svg xmlns="http://www.w3.org/2000/svg" xmlns:xlink="http://www.w3.org/1999/xlink" version="1.1" id="レイヤー_1" x="0px" y="0px" viewBox="0 0 193.6 198.6" style="enable-background:new 0 0 193.6 198.6;" xml:space="preserve"> <style type="text/css"> .st0{display:none;fill:#EFECEC;} .st1{clip-path:url(#SVGID_00000177453953945530486640000015184811144479393210_);} .st2{fill:#666666;} </style> <g> <circle class="st0" cx="97.3" cy="96.2" r="96.2"></circle> <g> <g> <defs> <circle id="SVGID_1_" cx="97.3" cy="96.2" r="96.2"></circle> </defs> <clipPath id="SVGID_00000003822038657645159940000003542823748979068598_"> <use xlink:href="#SVGID_1_" style="overflow:visible;"></use> </clipPath> <g style="clip-path:url(#SVGID_00000003822038657645159940000003542823748979068598_);"> <path class="st2" d="M170.2,184.9c-0.2-2.6-1.7-25.2-6.8-32.6c-3.6-5.2-12.8-7-23.6-9.2c-6.4-1.3-12.9-2.6-17.3-4.6 c-1.2-1.1-2.8-7.3-3.2-12.9v-0.2c0-1,0-2.6,0.7-3.1c8.5-6.7,14-15.7,15.6-25.3c2.1-1.1,4.9-2.9,7.4-5.5 c4.2-4.5,5.9-10.1,4.8-16.1c-0.3-1.9-0.9-3.5-1.6-4.9h1.3c2.4,0,3.5-1.8,2.4-4l-2.4-5.2c-0.1-0.3-0.3-0.6-0.5-0.9 c0-2.6-0.2-5.1-0.5-7.5h-29.1v-3.5h28.5c-0.4-1.8-0.8-3.5-1.4-5.2h-27.1v-3.5h25.9c-7.7-18.6-25.3-31.6-46-31.6 C76.7,9.1,59,22.2,51.6,40.7h25.9v3.5H50.3c-0.5,1.7-1,3.4-1.4,5.2h28.5v3.5H48.3c-0.4,2.5-0.5,5-0.5,7.5 c-0.2,0.3-0.4,0.6-0.5,0.9l-2.4,5.2c-1,2.2,0.1,4,2.4,4h1.3c-0.7,1.4-1.3,3-1.6,4.9c-1.1,6,0.6,11.6,4.8,16.1 c2.4,2.6,5.3,4.4,7.4,5.5c1.7,9.6,7.1,18.6,15.6,25.3c0.7,0.5,0.7,2.1,0.7,3.1v0.2c-0.5,5.6-2,11.8-3.2,12.9 c-4.4,2-10.9,3.3-17.3,4.6c-10.7,2.2-20,4-23.6,9.2c-5.2,7.4-6.7,30-6.8,32.6c-0.1,1.6,0.2,4.1,2.6,6.6 c8.8,9.4,41.6,13.8,69.1,14c0,0,2.3,0,2.4,0c27.5-0.2,60.3-4.6,69.1-14C169.9,189,170.3,186.5,170.2,184.9z M119.8,148.1 l10.2,22l-9-2.5c-0.8-0.2-1.7-0.1-2.4,0.4l-13.1,8.8L119.8,148.1z M87.5,43.5H94V37h6.6v6.5h6.5V50h-6.5v6.5H94V50h-6.5V43.5z M65.7,94.3c-0.1-1.2-0.9-2.3-2.1-2.8c-3.5-1.5-11.5-6-9.9-14.8c0.4-2.3,1.2-3.8,2.2-4.3s2.5-0.1,3.7,0.5l6.7,6.2 c0.8,0.7,2,0.1,2-0.9l-0.2-7.6h58.5l-0.2,7.6c0,1,1.2,1.6,2,0.9l6.7-6.2c1.2-0.6,2.7-0.9,3.7-0.5c1,0.5,1.8,2,2.2,4.3 c1.6,8.9-6.4,13.3-9.9,14.8c-1.1,0.5-1.9,1.5-2.1,2.8c-1,8.6-5.7,16.6-13.3,22.6c-3.3,2.6-3.3,6.6-3.3,8.5v0.3 c0,0.4,0.3,4.1,1.1,7.9c0.7,3.6,1.7,6.2,2.9,8.1l-3,6c-9.8,6.7-22.3,6.7-32.1,0l-3-6c1.2-1.9,2.1-4.5,2.9-8.1 c0.8-3.8,1.1-7.6,1.1-7.9v-0.3c0-1.9,0-5.9-3.3-8.5C71.4,110.9,66.7,102.8,65.7,94.3z M74.9,148.1l14.4,28.7L76.1,168 c-0.5-0.3-1.1-0.5-1.6-0.5c-0.3,0-0.5,0-0.8,0.1l-9,2.5L74.9,148.1z M162.6,186.8c-6.1,6.6-34.7,11.8-65.2,11.8 c-30.5-0.1-59.1-5.2-65.2-11.8c-0.4-0.4-0.8-1-0.8-1.4l0,0c0.5-8.9,2.5-24.7,5.6-29.1c2-2.9,11.6-4.8,19.3-6.4 c4.3-0.9,8.7-1.8,12.6-2.9l-12.2,26.4c-0.5,1-0.3,2.3,0.4,3.1c0.7,0.9,1.9,1.2,3,0.9l13.9-3.8l21.3,14.2 c0.5,0.3,1.1,0.5,1.6,0.5h0.8c0.6,0,1.1-0.2,1.6-0.5l21.3-14.2l13.9,3.8c1.1,0.3,2.3-0.1,3-0.9c0.7-0.9,0.9-2.1,0.4-3.1 L125.7,147c3.9,1.1,8.3,2,12.6,2.9c7.7,1.6,17.3,3.5,19.3,6.4c3.1,4.4,5.1,20.2,5.6,29.1l0,0 C163.4,185.8,162.9,186.4,162.6,186.8z"></path> </g> </g> </g> </g> </svg> 